<svg width="60" height="60" viewBox="0 0 60 60" fill="none" xmlns="http://www.w3.org/2000/svg">
<path d="M30 0C13.434 0 0 13.434 0 30C0 46.566 13.434 60 30 60C46.566 60 60 46.566 60 30C60 13.434 46.566 0 30 0ZM21.282 45.352H13.976V23.37H21.282V45.352ZM17.63 20.369H17.583C15.131 20.369 13.545 18.681 13.545 16.572C13.545 14.415 15.18 12.773 17.679 12.773C20.179 12.773 21.716 14.415 21.764 16.572C21.764 18.681 20.178 20.369 17.63 20.369ZM47.629 45.352H40.323V33.592C40.323 30.637 39.265 28.622 36.622 28.622C34.603 28.622 33.402 29.981 32.873 31.293C32.68 31.763 32.633 32.419 32.633 33.076V45.352H25.327C25.327 45.352 25.422 25.432 25.327 23.37H32.633V26.483C33.603 24.985 35.341 22.854 39.217 22.854C44.024 22.854 47.629 25.996 47.629 32.747V45.352Z" fill="white"/>
</svg>
